<svg width="14" height="10" viewBox="0 0 14 10" fill="none" xmlns="http://www.w3.org/2000/svg">
<rect x="9" y="3" width="1" height="1" fill="#FF8B00"/>
<rect x="8" y="3" width="1" height="1" fill="#FF8B00"/>
<rect x="10" y="5" width="1" height="1" fill="#FF8B00"/>
<rect x="10" y="4" width="1" height="1" fill="#FF8B00"/>
<rect x="7" y="3" width="1" height="1" fill="#FF8B00"/>
<rect x="6" y="3" width="1" height="1" fill="#FF8B00"/>
<path d="M4 4H6V5H4V4Z" fill="#A5510C"/>
<rect x="4" y="5" width="1" height="1" fill="#FF8B00"/>
<rect x="3" y="6" width="1" height="1" fill="#FF8B00"/>
<rect x="2" y="7" width="1" height="1" fill="#FF8B00"/>
<rect x="1" y="8" width="1" height="1" fill="#FF8B00"/>
<rect x="9" y="6" width="1" height="1" fill="#FF8B00"/>
<rect x="8" y="7" width="1" height="1" fill="#FF8B00"/>
<path d="M7 8H9V9H7V8Z" fill="#A5510C"/>
<rect x="6" y="8" width="1" height="1" fill="#FF8B00"/>
<rect x="4" y="8" width="1" height="1" fill="#FF8B00"/>
<rect x="2" y="8" width="1" height="1" fill="#FF8B00"/>
<rect x="3" y="8" width="1" height="1" fill="#FF8B00"/>
<rect x="5" y="8" width="1" height="1" fill="#FF8B00"/>
<rect x="3" y="7" width="1" height="1" fill="#FF8B00"/>
<rect x="4" y="7" width="1" height="1" fill="#FF8B00"/>
<rect x="5" y="6" width="1" height="1" fill="#FF8B00"/>
<rect x="4" y="6" width="1" height="1" fill="#FF8B00"/>
<rect x="5" y="7" width="1" height="1" fill="#FF8B00"/>
<rect x="6" y="7" width="1" height="1" fill="#A5510C"/>
<rect x="5" y="5" width="1" height="1" fill="#FF8B00"/>
<rect x="6" y="5" width="1" height="1" fill="#A5510C"/>
<rect x="6" y="4" width="1" height="1" fill="#FF8B00"/>
<rect x="7" y="5" width="1" height="1" fill="#FF8B00"/>
<rect x="7" y="6" width="1" height="1" fill="#FF8B00"/>
<rect x="7" y="7" width="1" height="1" fill="#FF8B00"/>
<rect x="6" y="6" width="1" height="1" fill="#FF8B00"/>
<rect x="8" y="6" width="1" height="1" fill="#FF8B00"/>
<rect x="8" y="5" width="1" height="1" fill="#FF8B00"/>
<rect x="9" y="5" width="1" height="1" fill="#FF8B00"/>
<rect x="9" y="4" width="1" height="1" fill="#FF8B00"/>
<rect x="8" y="4" width="1" height="1" fill="#FF8B00"/>
<rect x="7" y="4" width="1" height="1" fill="#FF8B00"/>
<rect x="12" y="1" width="1" height="1" fill="#01FF00"/>
<rect x="11" y="2" width="1" height="1" fill="#01FF00"/>
<rect x="10" y="3" width="1" height="1" fill="#01FF00"/>
<rect x="11" y="4" width="1" height="1" fill="#01FF00"/>
<rect x="12" y="4" width="1" height="1" fill="#01FF00"/>
<rect x="13" y="4" width="1" height="1" fill="#01FF00"/>
<rect x="9" y="2" width="1" height="1" fill="#01FF00"/>
<rect x="9" y="1" width="1" height="1" fill="#01FF00"/>
<rect x="9" width="1" height="1" fill="#01FF00"/>
<rect x="5" y="3" width="1" height="1" fill="#A5510C"/>
<path d="M6 2H9V3H6V2Z" fill="#A5510C"/>
<rect x="3" y="5" width="1" height="1" fill="#A5510C"/>
<rect x="2" y="6" width="1" height="1" fill="#A5510C"/>
<rect x="1" y="7" width="1" height="1" fill="#A5510C"/>
<path d="M0 9H8V10H0V9Z" fill="#A5510C"/>
<rect x="9" y="7" width="1" height="1" fill="#A5510C"/>
<rect x="10" y="6" width="1" height="1" fill="#A5510C"/>
<path d="M10 4H11V6H10V4Z" fill="#A5510C"/>
<rect x="9" y="3" width="1" height="1" fill="#A5510C"/>
</svg>
